<?xml version="1.0" standalone="no"?>
<!DOCTYPE svg PUBLIC "-//W3C//DTD SVG 20010904//EN"
 "http://www.w3.org/TR/2001/REC-SVG-20010904/DTD/svg10.dtd">
<svg version="1.0" xmlns="http://www.w3.org/2000/svg"
 viewBox="0 0 512.000000 512.000000"
 preserveAspectRatio="xMidYMid meet">
<metadata>
Created by potrace 1.16, written by Peter Selinger 2001-2019
</metadata>
<g transform="translate(0.000000,512.000000) scale(0.100000,-0.100000)"
fill="#000000" stroke="none">
<path d="M2235 5105 c-480 -68 -884 -237 -1255 -523 -117 -91 -316 -287 -413
-407 -276 -342 -459 -746 -537 -1186 -28 -156 -39 -531 -21 -702 43 -399 182
-790 398 -1122 98 -150 184 -257 318 -394 419 -430 948 -690 1550 -760 134
-16 460 -13 605 4 748 93 1416 512 1833 1150 214 328 355 725 397 1117 22 211
9 561 -29 753 -18 92 -43 200 -49 210 -4 6 -8 19 -9 30 -2 11 -6 27 -10 35 -3
8 -7 21 -9 29 -1 8 -30 42 -64 76 -33 33 -58 64 -55 68 3 4 2 5 -2 2 -3 -3
-18 5 -31 17 l-24 23 6 -25 c6 -19 5 -21 -3 -10 -6 8 -8 23 -5 34 5 13 3 16
-7 11 -9 -6 -11 -3 -6 9 4 9 3 15 -2 12 -4 -3 -18 6 -31 19 -13 13 -28 22 -34
18 -6 -3 -8 -3 -4 2 6 6 -20 37 -119 140 -7 7 -9 16 -5 20 4 5 2 5 -4 2 -12
-7 -92 73 -113 111 -7 13 -16 20 -21 17 -5 -3 -48 39 -97 92 -112 125 -281
294 -406 406 -53 49 -95 92 -92 97 3 5 -4 14 -17 21 -38 21 -118 101 -111 113
3 6 3 8 -2 4 -4 -4 -13 -2 -20 5 -103 99 -134 125 -140 119 -5 -4 -5 -2 -2 4
4 6 -5 21 -18 34 -13 13 -22 27 -19 31 3 5 -3 6 -12 2 -12 -5 -15 -3 -9 6 5
10 2 12 -11 7 -11 -3 -26 -1 -34 5 -11 8 -9 9 10 3 l25 -6 -23 24 c-12 13 -19
28 -15 33 5 4 3 5 -3 2 -6 -3 -37 21 -69 53 -33 33 -66 60 -75 60 -9 0 -20 4
-25 9 -13 12 -192 56 -335 82 -152 27 -591 36 -745 14z m1415 -801 c188 -48
373 -171 491 -328 167 -220 226 -480 164 -721 -21 -81 -82 -207 -137 -280 -25
-33 -215 -227 -424 -431 -395 -386 -471 -450 -593 -494 -55 -21 -57 -22 -83
-88 -15 -37 -47 -96 -70 -132 -50 -76 -737 -783 -841 -866 -144 -113 -298
-166 -487 -166 -145 0 -239 23 -375 92 -235 118 -410 333 -476 585 -32 121
-30 290 6 410 30 102 77 193 141 275 24 30 212 220 418 422 388 381 459 441
586 490 58 22 60 24 81 82 47 124 106 194 502 598 299 306 398 401 462 443 89
59 183 99 285 121 82 17 260 11 350 -12z"/>
<path d="M3365 3847 c-22 -8 -56 -22 -75 -32 -30 -15 -730 -701 -730 -715 0
-3 29 -18 65 -34 194 -84 357 -247 440 -439 16 -37 32 -67 35 -67 3 0 162 157
353 348 407 409 402 402 402 567 0 90 -3 106 -29 160 -38 76 -114 153 -190
190 -49 24 -75 30 -145 32 -52 2 -102 -2 -126 -10z"/>
<path d="M1668 2213 c-409 -411 -403 -403 -403 -563 0 -99 2 -110 32 -171 39
-80 111 -150 191 -187 51 -24 69 -27 162 -27 160 0 152 -6 563 403 191 191
347 349 347 353 0 3 -24 16 -52 28 -194 80 -381 267 -457 455 -13 31 -26 56
-30 56 -3 0 -162 -156 -353 -347z"/>
</g>
</svg>
